# xmcd
#
# Track frame offsets:
#	150
#	50634
#	79161
#	105496
#	118577
#	161618
#	192075
#	225806
#	244576
#	286147
#	304124
#
# Disc length: 4306 seconds
#
# Revision: 1
# Processed by: cddbd v1.5.2PL0 Copyright (c) Steve Scherf et al.
# Submitted via: audiograbber 1.83.01
#
DISCID=8110d00b
DTITLE=Grateful Dead - 80-05-14 Nassau Veterans Memorial Coliseum, Uniondale NY
DYEAR=1900
DGENRE=
TTITLE0=Sugaree
TTITLE1=Lost Sailor
TTITLE2=Saint Of Circumstance
TTITLE3=Jam
TTITLE4=Comes A Time
TTITLE5=The Other One
TTITLE6=Drums
TTITLE7=Space
TTITLE8=Black Peter
TTITLE9=Around and Around
TTITLE10=Johnny B Goode
EXTD=
EXTT0=
EXTT1=
EXTT2=
EXTT3=
EXTT4=
EXTT5=
EXTT6=
EXTT7=
EXTT8=
EXTT9=
EXTT10=
PLAYORDER=
